<svg xmlns="http://www.w3.org/2000/svg" version="1.1" xmlns:xlink="http://www.w3.org/1999/xlink" xmlns:svgjs="http://svgjs.com/svgjs" width="1440" height="1440" preserveAspectRatio="none" viewBox="0 0 1440 1440"><g mask="url(&quot;#SvgjsMask1367&quot;)" fill="none"><rect width="1440" height="1440" x="0" y="0" fill="url(#SvgjsLinearGradient1368)"></rect><path d="M111.53 110.35L176.49 147.85L176.49 222.85L111.53 260.35L46.58 222.85L46.58 147.85zM46.58 222.85L111.53 260.35L111.53 335.35L46.58 372.85L-18.37 335.35L-18.37 260.35zM111.53 785.35L176.49 822.85L176.49 897.85L111.53 935.35L46.58 897.85L46.58 822.85zM46.58 897.85L111.53 935.35L111.53 1010.35L46.58 1047.85L-18.37 1010.35L-18.37 935.35zM46.58 1122.85L111.53 1160.35L111.53 1235.35L46.58 1272.85L-18.37 1235.35L-18.37 1160.35zM176.49 -2.15L241.44 35.35L241.44 110.35L176.49 147.85L111.53 110.35L111.53 35.35zM176.49 222.85L241.44 260.35L241.44 335.35L176.49 372.85L111.53 335.35L111.53 260.35zM176.49 672.85L241.44 710.35L241.44 785.35L176.49 822.85L111.53 785.35L111.53 710.35zM241.44 785.35L306.39 822.85L306.39 897.85L241.44 935.35L176.49 897.85L176.49 822.85zM176.49 1122.85L241.44 1160.35L241.44 1235.35L176.49 1272.85L111.53 1235.35L111.53 1160.35zM241.44 1460.35L306.39 1497.85L306.39 1572.85L241.44 1610.35L176.49 1572.85L176.49 1497.85zM306.39 -2.15L371.35 35.35L371.35 110.35L306.39 147.85L241.44 110.35L241.44 35.35zM371.35 110.35L436.3 147.85L436.3 222.85L371.35 260.35L306.39 222.85L306.39 147.85zM306.39 222.85L371.35 260.35L371.35 335.35L306.39 372.85L241.44 335.35L241.44 260.35zM306.39 447.85L371.35 485.35L371.35 560.35L306.39 597.85L241.44 560.35L241.44 485.35zM371.35 560.35L436.3 597.85L436.3 672.85L371.35 710.35L306.39 672.85L306.39 597.85zM306.39 672.85L371.35 710.35L371.35 785.35L306.39 822.85L241.44 785.35L241.44 710.35zM306.39 897.85L371.35 935.35L371.35 1010.35L306.39 1047.85L241.44 1010.35L241.44 935.35zM371.35 1235.35L436.3 1272.85L436.3 1347.85L371.35 1385.35L306.39 1347.85L306.39 1272.85zM501.26 110.35L566.21 147.85L566.21 222.85L501.26 260.35L436.3 222.85L436.3 147.85zM436.3 222.85L501.26 260.35L501.26 335.35L436.3 372.85L371.35 335.35L371.35 260.35zM501.26 335.35L566.21 372.85L566.21 447.85L501.26 485.35L436.3 447.85L436.3 372.85zM436.3 672.85L501.26 710.35L501.26 785.35L436.3 822.85L371.35 785.35L371.35 710.35zM501.26 785.35L566.21 822.85L566.21 897.85L501.26 935.35L436.3 897.85L436.3 822.85zM436.3 1122.85L501.26 1160.35L501.26 1235.35L436.3 1272.85L371.35 1235.35L371.35 1160.35zM501.26 1235.35L566.21 1272.85L566.21 1347.85L501.26 1385.35L436.3 1347.85L436.3 1272.85zM631.16 110.35L696.12 147.85L696.12 222.85L631.16 260.35L566.21 222.85L566.21 147.85zM631.16 335.35L696.12 372.85L696.12 447.85L631.16 485.35L566.21 447.85L566.21 372.85zM566.21 672.85L631.16 710.35L631.16 785.35L566.21 822.85L501.26 785.35L501.26 710.35zM631.16 1460.35L696.12 1497.85L696.12 1572.85L631.16 1610.35L566.21 1572.85L566.21 1497.85zM761.07 110.35L826.03 147.85L826.03 222.85L761.07 260.35L696.12 222.85L696.12 147.85zM761.07 335.35L826.03 372.85L826.03 447.85L761.07 485.35L696.12 447.85L696.12 372.85zM696.12 447.85L761.07 485.35L761.07 560.35L696.12 597.85L631.16 560.35L631.16 485.35zM761.07 560.35L826.03 597.85L826.03 672.85L761.07 710.35L696.12 672.85L696.12 597.85zM761.07 1235.35L826.03 1272.85L826.03 1347.85L761.07 1385.35L696.12 1347.85L696.12 1272.85zM826.02 -2.15L890.98 35.35L890.98 110.35L826.02 147.85L761.07 110.35L761.07 35.35zM826.02 447.85L890.98 485.35L890.98 560.35L826.02 597.85L761.07 560.35L761.07 485.35zM826.02 672.85L890.98 710.35L890.98 785.35L826.02 822.85L761.07 785.35L761.07 710.35zM890.98 785.35L955.93 822.85L955.93 897.85L890.98 935.35L826.02 897.85L826.02 822.85zM890.98 1010.35L955.93 1047.85L955.93 1122.85L890.98 1160.35L826.02 1122.85L826.02 1047.85zM826.02 1347.85L890.98 1385.35L890.98 1460.35L826.02 1497.85L761.07 1460.35L761.07 1385.35zM890.98 1460.35L955.93 1497.85L955.93 1572.85L890.98 1610.35L826.02 1572.85L826.02 1497.85zM955.93 -2.15L1020.89 35.35L1020.89 110.35L955.93 147.85L890.98 110.35L890.98 35.35zM1020.89 110.35L1085.84 147.85L1085.84 222.85L1020.89 260.35L955.93 222.85L955.93 147.85zM1020.89 335.35L1085.84 372.85L1085.84 447.85L1020.89 485.35L955.93 447.85L955.93 372.85zM955.93 447.85L1020.89 485.35L1020.89 560.35L955.93 597.85L890.98 560.35L890.98 485.35zM955.93 672.85L1020.89 710.35L1020.89 785.35L955.93 822.85L890.98 785.35L890.98 710.35zM955.93 897.85L1020.89 935.35L1020.89 1010.35L955.93 1047.85L890.98 1010.35L890.98 935.35zM1020.89 1010.35L1085.84 1047.85L1085.84 1122.85L1020.89 1160.35L955.93 1122.85L955.93 1047.85zM955.93 1347.85L1020.89 1385.35L1020.89 1460.35L955.93 1497.85L890.98 1460.35L890.98 1385.35zM1020.89 1460.35L1085.84 1497.85L1085.84 1572.85L1020.89 1610.35L955.93 1572.85L955.93 1497.85zM1085.84 -2.15L1150.79 35.35L1150.79 110.35L1085.84 147.85L1020.89 110.35L1020.89 35.35zM1150.79 110.35L1215.75 147.85L1215.75 222.85L1150.79 260.35L1085.84 222.85L1085.84 147.85zM1085.84 672.85L1150.79 710.35L1150.79 785.35L1085.84 822.85L1020.89 785.35L1020.89 710.35zM1150.79 785.35L1215.75 822.85L1215.75 897.85L1150.79 935.35L1085.84 897.85L1085.84 822.85zM1150.79 1010.35L1215.75 1047.85L1215.75 1122.85L1150.79 1160.35L1085.84 1122.85L1085.84 1047.85zM1150.79 1235.35L1215.75 1272.85L1215.75 1347.85L1150.79 1385.35L1085.84 1347.85L1085.84 1272.85zM1280.7 110.35L1345.65 147.85L1345.65 222.85L1280.7 260.35L1215.75 222.85L1215.75 147.85zM1215.75 222.85L1280.7 260.35L1280.7 335.35L1215.75 372.85L1150.79 335.35L1150.79 260.35zM1280.7 560.35L1345.65 597.85L1345.65 672.85L1280.7 710.35L1215.75 672.85L1215.75 597.85zM1280.7 1235.35L1345.65 1272.85L1345.65 1347.85L1280.7 1385.35L1215.75 1347.85L1215.75 1272.85zM1280.7 1460.35L1345.65 1497.85L1345.65 1572.85L1280.7 1610.35L1215.75 1572.85L1215.75 1497.85zM1410.61 335.35L1475.56 372.85L1475.56 447.85L1410.61 485.35L1345.65 447.85L1345.65 372.85zM1410.61 560.35L1475.56 597.85L1475.56 672.85L1410.61 710.35L1345.65 672.85L1345.65 597.85zM1410.61 785.35L1475.56 822.85L1475.56 897.85L1410.61 935.35L1345.65 897.85L1345.65 822.85zM1475.56 -2.15L1540.52 35.35L1540.52 110.35L1475.56 147.85L1410.61 110.35L1410.61 35.35zM1540.52 110.35L1605.47 147.85L1605.47 222.85L1540.52 260.35L1475.56 222.85L1475.56 147.85zM1475.56 222.85L1540.52 260.35L1540.52 335.35L1475.56 372.85L1410.61 335.35L1410.61 260.35z" stroke="#03305d" stroke-width="2"></path><path d="M104.03 110.35 a7.5 7.5 0 1 0 15 0 a7.5 7.5 0 1 0 -15 0zM168.99 147.85 a7.5 7.5 0 1 0 15 0 a7.5 7.5 0 1 0 -15 0zM168.99 222.85 a7.5 7.5 0 1 0 15 0 a7.5 7.5 0 1 0 -15 0zM104.03 260.35 a7.5 7.5 0 1 0 15 0 a7.5 7.5 0 1 0 -15 0zM39.08 222.85 a7.5 7.5 0 1 0 15 0 a7.5 7.5 0 1 0 -15 0zM39.08 147.85 a7.5 7.5 0 1 0 15 0 a7.5 7.5 0 1 0 -15 0zM104.03 335.35 a7.5 7.5 0 1 0 15 0 a7.5 7.5 0 1 0 -15 0zM39.08 372.85 a7.5 7.5 0 1 0 15 0 a7.5 7.5 0 1 0 -15 0zM-25.87 335.35 a7.5 7.5 0 1 0 15 0 a7.5 7.5 0 1 0 -15 0zM-25.87 260.35 a7.5 7.5 0 1 0 15 0 a7.5 7.5 0 1 0 -15 0zM104.03 785.35 a7.5 7.5 0 1 0 15 0 a7.5 7.5 0 1 0 -15 0zM168.99 822.85 a7.5 7.5 0 1 0 15 0 a7.5 7.5 0 1 0 -15 0zM168.99 897.85 a7.5 7.5 0 1 0 15 0 a7.5 7.5 0 1 0 -15 0zM104.03 935.35 a7.5 7.5 0 1 0 15 0 a7.5 7.5 0 1 0 -15 0zM39.08 897.85 a7.5 7.5 0 1 0 15 0 a7.5 7.5 0 1 0 -15 0zM39.08 822.85 a7.5 7.5 0 1 0 15 0 a7.5 7.5 0 1 0 -15 0zM104.03 1010.35 a7.5 7.5 0 1 0 15 0 a7.5 7.5 0 1 0 -15 0zM39.08 1047.85 a7.5 7.5 0 1 0 15 0 a7.5 7.5 0 1 0 -15 0zM-25.87 1010.35 a7.5 7.5 0 1 0 15 0 a7.5 7.5 0 1 0 -15 0zM-25.87 935.35 a7.5 7.5 0 1 0 15 0 a7.5 7.5 0 1 0 -15 0zM39.08 1122.85 a7.5 7.5 0 1 0 15 0 a7.5 7.5 0 1 0 -15 0zM104.03 1160.35 a7.5 7.5 0 1 0 15 0 a7.5 7.5 0 1 0 -15 0zM104.03 1235.35 a7.5 7.5 0 1 0 15 0 a7.5 7.5 0 1 0 -15 0zM39.08 1272.85 a7.5 7.5 0 1 0 15 0 a7.5 7.5 0 1 0 -15 0zM-25.87 1235.35 a7.5 7.5 0 1 0 15 0 a7.5 7.5 0 1 0 -15 0zM-25.87 1160.35 a7.5 7.5 0 1 0 15 0 a7.5 7.5 0 1 0 -15 0zM168.99 -2.15 a7.5 7.5 0 1 0 15 0 a7.5 7.5 0 1 0 -15 0zM233.94 35.35 a7.5 7.5 0 1 0 15 0 a7.5 7.5 0 1 0 -15 0zM233.94 110.35 a7.5 7.5 0 1 0 15 0 a7.5 7.5 0 1 0 -15 0zM104.03 35.35 a7.5 7.5 0 1 0 15 0 a7.5 7.5 0 1 0 -15 0zM233.94 260.35 a7.5 7.5 0 1 0 15 0 a7.5 7.5 0 1 0 -15 0zM233.94 335.35 a7.5 7.5 0 1 0 15 0 a7.5 7.5 0 1 0 -15 0zM168.99 372.85 a7.5 7.5 0 1 0 15 0 a7.5 7.5 0 1 0 -15 0zM168.99 672.85 a7.5 7.5 0 1 0 15 0 a7.5 7.5 0 1 0 -15 0zM233.94 710.35 a7.5 7.5 0 1 0 15 0 a7.5 7.5 0 1 0 -15 0zM233.94 785.35 a7.5 7.5 0 1 0 15 0 a7.5 7.5 0 1 0 -15 0zM104.03 710.35 a7.5 7.5 0 1 0 15 0 a7.5 7.5 0 1 0 -15 0zM298.89 822.85 a7.5 7.5 0 1 0 15 0 a7.5 7.5 0 1 0 -15 0zM298.89 897.85 a7.5 7.5 0 1 0 15 0 a7.5 7.5 0 1 0 -15 0zM233.94 935.35 a7.5 7.5 0 1 0 15 0 a7.5 7.5 0 1 0 -15 0zM168.99 1122.85 a7.5 7.5 0 1 0 15 0 a7.5 7.5 0 1 0 -15 0zM233.94 1160.35 a7.5 7.5 0 1 0 15 0 a7.5 7.5 0 1 0 -15 0zM233.94 1235.35 a7.5 7.5 0 1 0 15 0 a7.5 7.5 0 1 0 -15 0zM168.99 1272.85 a7.5 7.5 0 1 0 15 0 a7.5 7.5 0 1 0 -15 0zM233.94 1460.35 a7.5 7.5 0 1 0 15 0 a7.5 7.5 0 1 0 -15 0zM298.89 1497.85 a7.5 7.5 0 1 0 15 0 a7.5 7.5 0 1 0 -15 0zM298.89 1572.85 a7.5 7.5 0 1 0 15 0 a7.5 7.5 0 1 0 -15 0zM233.94 1610.35 a7.5 7.5 0 1 0 15 0 a7.5 7.5 0 1 0 -15 0zM168.99 1572.85 a7.5 7.5 0 1 0 15 0 a7.5 7.5 0 1 0 -15 0zM168.99 1497.85 a7.5 7.5 0 1 0 15 0 a7.5 7.5 0 1 0 -15 0zM298.89 -2.15 a7.5 7.5 0 1 0 15 0 a7.5 7.5 0 1 0 -15 0zM363.85 35.35 a7.5 7.5 0 1 0 15 0 a7.5 7.5 0 1 0 -15 0zM363.85 110.35 a7.5 7.5 0 1 0 15 0 a7.5 7.5 0 1 0 -15 0zM298.89 147.85 a7.5 7.5 0 1 0 15 0 a7.5 7.5 0 1 0 -15 0zM428.8 147.85 a7.5 7.5 0 1 0 15 0 a7.5 7.5 0 1 0 -15 0zM428.8 222.85 a7.5 7.5 0 1 0 15 0 a7.5 7.5 0 1 0 -15 0zM363.85 260.35 a7.5 7.5 0 1 0 15 0 a7.5 7.5 0 1 0 -15 0zM298.89 222.85 a7.5 7.5 0 1 0 15 0 a7.5 7.5 0 1 0 -15 0zM363.85 335.35 a7.5 7.5 0 1 0 15 0 a7.5 7.5 0 1 0 -15 0zM298.89 372.85 a7.5 7.5 0 1 0 15 0 a7.5 7.5 0 1 0 -15 0zM298.89 447.85 a7.5 7.5 0 1 0 15 0 a7.5 7.5 0 1 0 -15 0zM363.85 485.35 a7.5 7.5 0 1 0 15 0 a7.5 7.5 0 1 0 -15 0zM363.85 560.35 a7.5 7.5 0 1 0 15 0 a7.5 7.5 0 1 0 -15 0zM298.89 597.85 a7.5 7.5 0 1 0 15 0 a7.5 7.5 0 1 0 -15 0zM233.94 560.35 a7.5 7.5 0 1 0 15 0 a7.5 7.5 0 1 0 -15 0zM233.94 485.35 a7.5 7.5 0 1 0 15 0 a7.5 7.5 0 1 0 -15 0zM428.8 597.85 a7.5 7.5 0 1 0 15 0 a7.5 7.5 0 1 0 -15 0zM428.8 672.85 a7.5 7.5 0 1 0 15 0 a7.5 7.5 0 1 0 -15 0zM363.85 710.35 a7.5 7.5 0 1 0 15 0 a7.5 7.5 0 1 0 -15 0zM298.89 672.85 a7.5 7.5 0 1 0 15 0 a7.5 7.5 0 1 0 -15 0zM363.85 785.35 a7.5 7.5 0 1 0 15 0 a7.5 7.5 0 1 0 -15 0zM363.85 935.35 a7.5 7.5 0 1 0 15 0 a7.5 7.5 0 1 0 -15 0zM363.85 1010.35 a7.5 7.5 0 1 0 15 0 a7.5 7.5 0 1 0 -15 0zM298.89 1047.85 a7.5 7.5 0 1 0 15 0 a7.5 7.5 0 1 0 -15 0zM233.94 1010.35 a7.5 7.5 0 1 0 15 0 a7.5 7.5 0 1 0 -15 0zM363.85 1235.35 a7.5 7.5 0 1 0 15 0 a7.5 7.5 0 1 0 -15 0zM428.8 1272.85 a7.5 7.5 0 1 0 15 0 a7.5 7.5 0 1 0 -15 0zM428.8 1347.85 a7.5 7.5 0 1 0 15 0 a7.5 7.5 0 1 0 -15 0zM363.85 1385.35 a7.5 7.5 0 1 0 15 0 a7.5 7.5 0 1 0 -15 0zM298.89 1347.85 a7.5 7.5 0 1 0 15 0 a7.5 7.5 0 1 0 -15 0zM298.89 1272.85 a7.5 7.5 0 1 0 15 0 a7.5 7.5 0 1 0 -15 0zM493.76 110.35 a7.5 7.5 0 1 0 15 0 a7.5 7.5 0 1 0 -15 0zM558.71 147.85 a7.5 7.5 0 1 0 15 0 a7.5 7.5 0 1 0 -15 0zM558.71 222.85 a7.5 7.5 0 1 0 15 0 a7.5 7.5 0 1 0 -15 0zM493.76 260.35 a7.5 7.5 0 1 0 15 0 a7.5 7.5 0 1 0 -15 0zM493.76 335.35 a7.5 7.5 0 1 0 15 0 a7.5 7.5 0 1 0 -15 0zM428.8 372.85 a7.5 7.5 0 1 0 15 0 a7.5 7.5 0 1 0 -15 0zM558.71 372.85 a7.5 7.5 0 1 0 15 0 a7.5 7.5 0 1 0 -15 0zM558.71 447.85 a7.5 7.5 0 1 0 15 0 a7.5 7.5 0 1 0 -15 0zM493.76 485.35 a7.5 7.5 0 1 0 15 0 a7.5 7.5 0 1 0 -15 0zM428.8 447.85 a7.5 7.5 0 1 0 15 0 a7.5 7.5 0 1 0 -15 0zM493.76 710.35 a7.5 7.5 0 1 0 15 0 a7.5 7.5 0 1 0 -15 0zM493.76 785.35 a7.5 7.5 0 1 0 15 0 a7.5 7.5 0 1 0 -15 0zM428.8 822.85 a7.5 7.5 0 1 0 15 0 a7.5 7.5 0 1 0 -15 0zM558.71 822.85 a7.5 7.5 0 1 0 15 0 a7.5 7.5 0 1 0 -15 0zM558.71 897.85 a7.5 7.5 0 1 0 15 0 a7.5 7.5 0 1 0 -15 0zM493.76 935.35 a7.5 7.5 0 1 0 15 0 a7.5 7.5 0 1 0 -15 0zM428.8 897.85 a7.5 7.5 0 1 0 15 0 a7.5 7.5 0 1 0 -15 0zM428.8 1122.85 a7.5 7.5 0 1 0 15 0 a7.5 7.5 0 1 0 -15 0zM493.76 1160.35 a7.5 7.5 0 1 0 15 0 a7.5 7.5 0 1 0 -15 0zM493.76 1235.35 a7.5 7.5 0 1 0 15 0 a7.5 7.5 0 1 0 -15 0zM363.85 1160.35 a7.5 7.5 0 1 0 15 0 a7.5 7.5 0 1 0 -15 0zM558.71 1272.85 a7.5 7.5 0 1 0 15 0 a7.5 7.5 0 1 0 -15 0zM558.71 1347.85 a7.5 7.5 0 1 0 15 0 a7.5 7.5 0 1 0 -15 0zM493.76 1385.35 a7.5 7.5 0 1 0 15 0 a7.5 7.5 0 1 0 -15 0zM623.66 110.35 a7.5 7.5 0 1 0 15 0 a7.5 7.5 0 1 0 -15 0zM688.62 147.85 a7.5 7.5 0 1 0 15 0 a7.5 7.5 0 1 0 -15 0zM688.62 222.85 a7.5 7.5 0 1 0 15 0 a7.5 7.5 0 1 0 -15 0zM623.66 260.35 a7.5 7.5 0 1 0 15 0 a7.5 7.5 0 1 0 -15 0zM623.66 335.35 a7.5 7.5 0 1 0 15 0 a7.5 7.5 0 1 0 -15 0zM688.62 372.85 a7.5 7.5 0 1 0 15 0 a7.5 7.5 0 1 0 -15 0zM688.62 447.85 a7.5 7.5 0 1 0 15 0 a7.5 7.5 0 1 0 -15 0zM623.66 485.35 a7.5 7.5 0 1 0 15 0 a7.5 7.5 0 1 0 -15 0zM558.71 672.85 a7.5 7.5 0 1 0 15 0 a7.5 7.5 0 1 0 -15 0zM623.66 710.35 a7.5 7.5 0 1 0 15 0 a7.5 7.5 0 1 0 -15 0zM623.66 785.35 a7.5 7.5 0 1 0 15 0 a7.5 7.5 0 1 0 -15 0zM623.66 1460.35 a7.5 7.5 0 1 0 15 0 a7.5 7.5 0 1 0 -15 0zM688.62 1497.85 a7.5 7.5 0 1 0 15 0 a7.5 7.5 0 1 0 -15 0zM688.62 1572.85 a7.5 7.5 0 1 0 15 0 a7.5 7.5 0 1 0 -15 0zM623.66 1610.35 a7.5 7.5 0 1 0 15 0 a7.5 7.5 0 1 0 -15 0zM558.71 1572.85 a7.5 7.5 0 1 0 15 0 a7.5 7.5 0 1 0 -15 0zM558.71 1497.85 a7.5 7.5 0 1 0 15 0 a7.5 7.5 0 1 0 -15 0zM753.57 110.35 a7.5 7.5 0 1 0 15 0 a7.5 7.5 0 1 0 -15 0zM818.53 147.85 a7.5 7.5 0 1 0 15 0 a7.5 7.5 0 1 0 -15 0zM818.53 222.85 a7.5 7.5 0 1 0 15 0 a7.5 7.5 0 1 0 -15 0zM753.57 260.35 a7.5 7.5 0 1 0 15 0 a7.5 7.5 0 1 0 -15 0zM753.57 335.35 a7.5 7.5 0 1 0 15 0 a7.5 7.5 0 1 0 -15 0zM818.53 372.85 a7.5 7.5 0 1 0 15 0 a7.5 7.5 0 1 0 -15 0zM818.53 447.85 a7.5 7.5 0 1 0 15 0 a7.5 7.5 0 1 0 -15 0zM753.57 485.35 a7.5 7.5 0 1 0 15 0 a7.5 7.5 0 1 0 -15 0zM753.57 560.35 a7.5 7.5 0 1 0 15 0 a7.5 7.5 0 1 0 -15 0zM688.62 597.85 a7.5 7.5 0 1 0 15 0 a7.5 7.5 0 1 0 -15 0zM623.66 560.35 a7.5 7.5 0 1 0 15 0 a7.5 7.5 0 1 0 -15 0zM818.53 597.85 a7.5 7.5 0 1 0 15 0 a7.5 7.5 0 1 0 -15 0zM818.53 672.85 a7.5 7.5 0 1 0 15 0 a7.5 7.5 0 1 0 -15 0zM753.57 710.35 a7.5 7.5 0 1 0 15 0 a7.5 7.5 0 1 0 -15 0zM688.62 672.85 a7.5 7.5 0 1 0 15 0 a7.5 7.5 0 1 0 -15 0zM753.57 1235.35 a7.5 7.5 0 1 0 15 0 a7.5 7.5 0 1 0 -15 0zM818.53 1272.85 a7.5 7.5 0 1 0 15 0 a7.5 7.5 0 1 0 -15 0zM818.53 1347.85 a7.5 7.5 0 1 0 15 0 a7.5 7.5 0 1 0 -15 0zM753.57 1385.35 a7.5 7.5 0 1 0 15 0 a7.5 7.5 0 1 0 -15 0zM688.62 1347.85 a7.5 7.5 0 1 0 15 0 a7.5 7.5 0 1 0 -15 0zM688.62 1272.85 a7.5 7.5 0 1 0 15 0 a7.5 7.5 0 1 0 -15 0zM818.52 -2.15 a7.5 7.5 0 1 0 15 0 a7.5 7.5 0 1 0 -15 0zM883.48 35.35 a7.5 7.5 0 1 0 15 0 a7.5 7.5 0 1 0 -15 0zM883.48 110.35 a7.5 7.5 0 1 0 15 0 a7.5 7.5 0 1 0 -15 0zM818.52 147.85 a7.5 7.5 0 1 0 15 0 a7.5 7.5 0 1 0 -15 0zM753.57 35.35 a7.5 7.5 0 1 0 15 0 a7.5 7.5 0 1 0 -15 0zM818.52 447.85 a7.5 7.5 0 1 0 15 0 a7.5 7.5 0 1 0 -15 0zM883.48 485.35 a7.5 7.5 0 1 0 15 0 a7.5 7.5 0 1 0 -15 0zM883.48 560.35 a7.5 7.5 0 1 0 15 0 a7.5 7.5 0 1 0 -15 0zM818.52 597.85 a7.5 7.5 0 1 0 15 0 a7.5 7.5 0 1 0 -15 0zM818.52 672.85 a7.5 7.5 0 1 0 15 0 a7.5 7.5 0 1 0 -15 0zM883.48 710.35 a7.5 7.5 0 1 0 15 0 a7.5 7.5 0 1 0 -15 0zM883.48 785.35 a7.5 7.5 0 1 0 15 0 a7.5 7.5 0 1 0 -15 0zM818.52 822.85 a7.5 7.5 0 1 0 15 0 a7.5 7.5 0 1 0 -15 0zM753.57 785.35 a7.5 7.5 0 1 0 15 0 a7.5 7.5 0 1 0 -15 0zM948.43 822.85 a7.5 7.5 0 1 0 15 0 a7.5 7.5 0 1 0 -15 0zM948.43 897.85 a7.5 7.5 0 1 0 15 0 a7.5 7.5 0 1 0 -15 0zM883.48 935.35 a7.5 7.5 0 1 0 15 0 a7.5 7.5 0 1 0 -15 0zM818.52 897.85 a7.5 7.5 0 1 0 15 0 a7.5 7.5 0 1 0 -15 0zM883.48 1010.35 a7.5 7.5 0 1 0 15 0 a7.5 7.5 0 1 0 -15 0zM948.43 1047.85 a7.5 7.5 0 1 0 15 0 a7.5 7.5 0 1 0 -15 0zM948.43 1122.85 a7.5 7.5 0 1 0 15 0 a7.5 7.5 0 1 0 -15 0zM883.48 1160.35 a7.5 7.5 0 1 0 15 0 a7.5 7.5 0 1 0 -15 0zM818.52 1122.85 a7.5 7.5 0 1 0 15 0 a7.5 7.5 0 1 0 -15 0zM818.52 1047.85 a7.5 7.5 0 1 0 15 0 a7.5 7.5 0 1 0 -15 0zM818.52 1347.85 a7.5 7.5 0 1 0 15 0 a7.5 7.5 0 1 0 -15 0zM883.48 1385.35 a7.5 7.5 0 1 0 15 0 a7.5 7.5 0 1 0 -15 0zM883.48 1460.35 a7.5 7.5 0 1 0 15 0 a7.5 7.5 0 1 0 -15 0zM818.52 1497.85 a7.5 7.5 0 1 0 15 0 a7.5 7.5 0 1 0 -15 0zM753.57 1460.35 a7.5 7.5 0 1 0 15 0 a7.5 7.5 0 1 0 -15 0zM948.43 1497.85 a7.5 7.5 0 1 0 15 0 a7.5 7.5 0 1 0 -15 0zM948.43 1572.85 a7.5 7.5 0 1 0 15 0 a7.5 7.5 0 1 0 -15 0zM883.48 1610.35 a7.5 7.5 0 1 0 15 0 a7.5 7.5 0 1 0 -15 0zM818.52 1572.85 a7.5 7.5 0 1 0 15 0 a7.5 7.5 0 1 0 -15 0zM948.43 -2.15 a7.5 7.5 0 1 0 15 0 a7.5 7.5 0 1 0 -15 0zM1013.39 35.35 a7.5 7.5 0 1 0 15 0 a7.5 7.5 0 1 0 -15 0zM1013.39 110.35 a7.5 7.5 0 1 0 15 0 a7.5 7.5 0 1 0 -15 0zM948.43 147.85 a7.5 7.5 0 1 0 15 0 a7.5 7.5 0 1 0 -15 0zM1078.34 147.85 a7.5 7.5 0 1 0 15 0 a7.5 7.5 0 1 0 -15 0zM1078.34 222.85 a7.5 7.5 0 1 0 15 0 a7.5 7.5 0 1 0 -15 0zM1013.39 260.35 a7.5 7.5 0 1 0 15 0 a7.5 7.5 0 1 0 -15 0zM948.43 222.85 a7.5 7.5 0 1 0 15 0 a7.5 7.5 0 1 0 -15 0zM1013.39 335.35 a7.5 7.5 0 1 0 15 0 a7.5 7.5 0 1 0 -15 0zM1078.34 372.85 a7.5 7.5 0 1 0 15 0 a7.5 7.5 0 1 0 -15 0zM1078.34 447.85 a7.5 7.5 0 1 0 15 0 a7.5 7.5 0 1 0 -15 0zM1013.39 485.35 a7.5 7.5 0 1 0 15 0 a7.5 7.5 0 1 0 -15 0zM948.43 447.85 a7.5 7.5 0 1 0 15 0 a7.5 7.5 0 1 0 -15 0zM948.43 372.85 a7.5 7.5 0 1 0 15 0 a7.5 7.5 0 1 0 -15 0zM1013.39 560.35 a7.5 7.5 0 1 0 15 0 a7.5 7.5 0 1 0 -15 0zM948.43 597.85 a7.5 7.5 0 1 0 15 0 a7.5 7.5 0 1 0 -15 0zM948.43 672.85 a7.5 7.5 0 1 0 15 0 a7.5 7.5 0 1 0 -15 0zM1013.39 710.35 a7.5 7.5 0 1 0 15 0 a7.5 7.5 0 1 0 -15 0zM1013.39 785.35 a7.5 7.5 0 1 0 15 0 a7.5 7.5 0 1 0 -15 0zM1013.39 935.35 a7.5 7.5 0 1 0 15 0 a7.5 7.5 0 1 0 -15 0zM1013.39 1010.35 a7.5 7.5 0 1 0 15 0 a7.5 7.5 0 1 0 -15 0zM1078.34 1047.85 a7.5 7.5 0 1 0 15 0 a7.5 7.5 0 1 0 -15 0zM1078.34 1122.85 a7.5 7.5 0 1 0 15 0 a7.5 7.5 0 1 0 -15 0zM1013.39 1160.35 a7.5 7.5 0 1 0 15 0 a7.5 7.5 0 1 0 -15 0zM948.43 1347.85 a7.5 7.5 0 1 0 15 0 a7.5 7.5 0 1 0 -15 0zM1013.39 1385.35 a7.5 7.5 0 1 0 15 0 a7.5 7.5 0 1 0 -15 0zM1013.39 1460.35 a7.5 7.5 0 1 0 15 0 a7.5 7.5 0 1 0 -15 0zM1078.34 1497.85 a7.5 7.5 0 1 0 15 0 a7.5 7.5 0 1 0 -15 0zM1078.34 1572.85 a7.5 7.5 0 1 0 15 0 a7.5 7.5 0 1 0 -15 0zM1013.39 1610.35 a7.5 7.5 0 1 0 15 0 a7.5 7.5 0 1 0 -15 0zM1078.34 -2.15 a7.5 7.5 0 1 0 15 0 a7.5 7.5 0 1 0 -15 0zM1143.29 35.35 a7.5 7.5 0 1 0 15 0 a7.5 7.5 0 1 0 -15 0zM1143.29 110.35 a7.5 7.5 0 1 0 15 0 a7.5 7.5 0 1 0 -15 0zM1208.25 147.85 a7.5 7.5 0 1 0 15 0 a7.5 7.5 0 1 0 -15 0zM1208.25 222.85 a7.5 7.5 0 1 0 15 0 a7.5 7.5 0 1 0 -15 0zM1143.29 260.35 a7.5 7.5 0 1 0 15 0 a7.5 7.5 0 1 0 -15 0zM1078.34 672.85 a7.5 7.5 0 1 0 15 0 a7.5 7.5 0 1 0 -15 0zM1143.29 710.35 a7.5 7.5 0 1 0 15 0 a7.5 7.5 0 1 0 -15 0zM1143.29 785.35 a7.5 7.5 0 1 0 15 0 a7.5 7.5 0 1 0 -15 0zM1078.34 822.85 a7.5 7.5 0 1 0 15 0 a7.5 7.5 0 1 0 -15 0zM1208.25 822.85 a7.5 7.5 0 1 0 15 0 a7.5 7.5 0 1 0 -15 0zM1208.25 897.85 a7.5 7.5 0 1 0 15 0 a7.5 7.5 0 1 0 -15 0zM1143.29 935.35 a7.5 7.5 0 1 0 15 0 a7.5 7.5 0 1 0 -15 0zM1078.34 897.85 a7.5 7.5 0 1 0 15 0 a7.5 7.5 0 1 0 -15 0zM1143.29 1010.35 a7.5 7.5 0 1 0 15 0 a7.5 7.5 0 1 0 -15 0zM1208.25 1047.85 a7.5 7.5 0 1 0 15 0 a7.5 7.5 0 1 0 -15 0zM1208.25 1122.85 a7.5 7.5 0 1 0 15 0 a7.5 7.5 0 1 0 -15 0zM1143.29 1160.35 a7.5 7.5 0 1 0 15 0 a7.5 7.5 0 1 0 -15 0zM1143.29 1235.35 a7.5 7.5 0 1 0 15 0 a7.5 7.5 0 1 0 -15 0zM1208.25 1272.85 a7.5 7.5 0 1 0 15 0 a7.5 7.5 0 1 0 -15 0zM1208.25 1347.85 a7.5 7.5 0 1 0 15 0 a7.5 7.5 0 1 0 -15 0zM1143.29 1385.35 a7.5 7.5 0 1 0 15 0 a7.5 7.5 0 1 0 -15 0zM1078.34 1347.85 a7.5 7.5 0 1 0 15 0 a7.5 7.5 0 1 0 -15 0zM1078.34 1272.85 a7.5 7.5 0 1 0 15 0 a7.5 7.5 0 1 0 -15 0zM1273.2 110.35 a7.5 7.5 0 1 0 15 0 a7.5 7.5 0 1 0 -15 0zM1338.15 147.85 a7.5 7.5 0 1 0 15 0 a7.5 7.5 0 1 0 -15 0zM1338.15 222.85 a7.5 7.5 0 1 0 15 0 a7.5 7.5 0 1 0 -15 0zM1273.2 260.35 a7.5 7.5 0 1 0 15 0 a7.5 7.5 0 1 0 -15 0zM1273.2 335.35 a7.5 7.5 0 1 0 15 0 a7.5 7.5 0 1 0 -15 0zM1208.25 372.85 a7.5 7.5 0 1 0 15 0 a7.5 7.5 0 1 0 -15 0zM1143.29 335.35 a7.5 7.5 0 1 0 15 0 a7.5 7.5 0 1 0 -15 0zM1273.2 560.35 a7.5 7.5 0 1 0 15 0 a7.5 7.5 0 1 0 -15 0zM1338.15 597.85 a7.5 7.5 0 1 0 15 0 a7.5 7.5 0 1 0 -15 0zM1338.15 672.85 a7.5 7.5 0 1 0 15 0 a7.5 7.5 0 1 0 -15 0zM1273.2 710.35 a7.5 7.5 0 1 0 15 0 a7.5 7.5 0 1 0 -15 0zM1208.25 672.85 a7.5 7.5 0 1 0 15 0 a7.5 7.5 0 1 0 -15 0zM1208.25 597.85 a7.5 7.5 0 1 0 15 0 a7.5 7.5 0 1 0 -15 0zM1273.2 1235.35 a7.5 7.5 0 1 0 15 0 a7.5 7.5 0 1 0 -15 0zM1338.15 1272.85 a7.5 7.5 0 1 0 15 0 a7.5 7.5 0 1 0 -15 0zM1338.15 1347.85 a7.5 7.5 0 1 0 15 0 a7.5 7.5 0 1 0 -15 0zM1273.2 1385.35 a7.5 7.5 0 1 0 15 0 a7.5 7.5 0 1 0 -15 0zM1273.2 1460.35 a7.5 7.5 0 1 0 15 0 a7.5 7.5 0 1 0 -15 0zM1338.15 1497.85 a7.5 7.5 0 1 0 15 0 a7.5 7.5 0 1 0 -15 0zM1338.15 1572.85 a7.5 7.5 0 1 0 15 0 a7.5 7.5 0 1 0 -15 0zM1273.2 1610.35 a7.5 7.5 0 1 0 15 0 a7.5 7.5 0 1 0 -15 0zM1208.25 1572.85 a7.5 7.5 0 1 0 15 0 a7.5 7.5 0 1 0 -15 0zM1208.25 1497.85 a7.5 7.5 0 1 0 15 0 a7.5 7.5 0 1 0 -15 0zM1403.11 335.35 a7.5 7.5 0 1 0 15 0 a7.5 7.5 0 1 0 -15 0zM1468.06 372.85 a7.5 7.5 0 1 0 15 0 a7.5 7.5 0 1 0 -15 0zM1468.06 447.85 a7.5 7.5 0 1 0 15 0 a7.5 7.5 0 1 0 -15 0zM1403.11 485.35 a7.5 7.5 0 1 0 15 0 a7.5 7.5 0 1 0 -15 0zM1338.15 447.85 a7.5 7.5 0 1 0 15 0 a7.5 7.5 0 1 0 -15 0zM1338.15 372.85 a7.5 7.5 0 1 0 15 0 a7.5 7.5 0 1 0 -15 0zM1403.11 560.35 a7.5 7.5 0 1 0 15 0 a7.5 7.5 0 1 0 -15 0zM1468.06 597.85 a7.5 7.5 0 1 0 15 0 a7.5 7.5 0 1 0 -15 0zM1468.06 672.85 a7.5 7.5 0 1 0 15 0 a7.5 7.5 0 1 0 -15 0zM1403.11 710.35 a7.5 7.5 0 1 0 15 0 a7.5 7.5 0 1 0 -15 0zM1403.11 785.35 a7.5 7.5 0 1 0 15 0 a7.5 7.5 0 1 0 -15 0zM1468.06 822.85 a7.5 7.5 0 1 0 15 0 a7.5 7.5 0 1 0 -15 0zM1468.06 897.85 a7.5 7.5 0 1 0 15 0 a7.5 7.5 0 1 0 -15 0zM1403.11 935.35 a7.5 7.5 0 1 0 15 0 a7.5 7.5 0 1 0 -15 0zM1338.15 897.85 a7.5 7.5 0 1 0 15 0 a7.5 7.5 0 1 0 -15 0zM1338.15 822.85 a7.5 7.5 0 1 0 15 0 a7.5 7.5 0 1 0 -15 0zM1468.06 -2.15 a7.5 7.5 0 1 0 15 0 a7.5 7.5 0 1 0 -15 0zM1533.02 35.35 a7.5 7.5 0 1 0 15 0 a7.5 7.5 0 1 0 -15 0zM1533.02 110.35 a7.5 7.5 0 1 0 15 0 a7.5 7.5 0 1 0 -15 0zM1468.06 147.85 a7.5 7.5 0 1 0 15 0 a7.5 7.5 0 1 0 -15 0zM1403.11 110.35 a7.5 7.5 0 1 0 15 0 a7.5 7.5 0 1 0 -15 0zM1403.11 35.35 a7.5 7.5 0 1 0 15 0 a7.5 7.5 0 1 0 -15 0zM1597.97 147.85 a7.5 7.5 0 1 0 15 0 a7.5 7.5 0 1 0 -15 0zM1597.97 222.85 a7.5 7.5 0 1 0 15 0 a7.5 7.5 0 1 0 -15 0zM1533.02 260.35 a7.5 7.5 0 1 0 15 0 a7.5 7.5 0 1 0 -15 0zM1468.06 222.85 a7.5 7.5 0 1 0 15 0 a7.5 7.5 0 1 0 -15 0zM1533.02 335.35 a7.5 7.5 0 1 0 15 0 a7.5 7.5 0 1 0 -15 0zM1403.11 260.35 a7.5 7.5 0 1 0 15 0 a7.5 7.5 0 1 0 -15 0z" fill="#03305d"></path><path d="M91.12 190.01L134.43 215.01L134.43 265.01L91.12 290.01L47.82 265.01L47.82 215.01zM47.82 265.01L91.12 290.01L91.12 340.01L47.82 365.01L4.52 340.01L4.52 290.01zM47.82 565.01L91.12 590.01L91.12 640.01L47.82 665.01L4.52 640.01L4.52 590.01zM47.82 1015.01L91.12 1040.01L91.12 1090.01L47.82 1115.01L4.52 1090.01L4.52 1040.01zM91.12 1240.01L134.43 1265.01L134.43 1315.01L91.12 1340.01L47.82 1315.01L47.82 1265.01zM134.43 115.01L177.73 140.01L177.73 190.01L134.43 215.01L91.12 190.01L91.12 140.01zM177.73 340.01L221.03 365.01L221.03 415.01L177.73 440.01L134.43 415.01L134.43 365.01zM134.43 715.01L177.73 740.01L177.73 790.01L134.43 815.01L91.12 790.01L91.12 740.01zM134.43 1165.01L177.73 1190.01L177.73 1240.01L134.43 1265.01L91.12 1240.01L91.12 1190.01zM264.33 40.01L307.63 65.01L307.63 115.01L264.33 140.01L221.03 115.01L221.03 65.01zM221.03 715.01L264.33 740.01L264.33 790.01L221.03 815.01L177.73 790.01L177.73 740.01zM264.33 790.01L307.63 815.01L307.63 865.01L264.33 890.01L221.03 865.01L221.03 815.01zM264.33 1090.01L307.63 1115.01L307.63 1165.01L264.33 1190.01L221.03 1165.01L221.03 1115.01zM350.94 640.01L394.24 665.01L394.24 715.01L350.94 740.01L307.63 715.01L307.63 665.01zM307.63 1015.01L350.94 1040.01L350.94 1090.01L307.63 1115.01L264.33 1090.01L264.33 1040.01zM307.63 1165.01L350.94 1190.01L350.94 1240.01L307.63 1265.01L264.33 1240.01L264.33 1190.01zM307.63 1315.01L350.94 1340.01L350.94 1390.01L307.63 1415.01L264.33 1390.01L264.33 1340.01zM350.94 1390.01L394.24 1415.01L394.24 1465.01L350.94 1490.01L307.63 1465.01L307.63 1415.01zM394.24 265.01L437.54 290.01L437.54 340.01L394.24 365.01L350.94 340.01L350.94 290.01zM394.24 565.01L437.54 590.01L437.54 640.01L394.24 665.01L350.94 640.01L350.94 590.01zM437.54 790.01L480.85 815.01L480.85 865.01L437.54 890.01L394.24 865.01L394.24 815.01zM394.24 865.01L437.54 890.01L437.54 940.01L394.24 965.01L350.94 940.01L350.94 890.01zM437.54 940.01L480.85 965.01L480.85 1015.01L437.54 1040.01L394.24 1015.01L394.24 965.01zM480.85 265.01L524.15 290.01L524.15 340.01L480.85 365.01L437.54 340.01L437.54 290.01zM524.15 340.01L567.45 365.01L567.45 415.01L524.15 440.01L480.85 415.01L480.85 365.01zM524.15 640.01L567.45 665.01L567.45 715.01L524.15 740.01L480.85 715.01L480.85 665.01zM524.15 1240.01L567.45 1265.01L567.45 1315.01L524.15 1340.01L480.85 1315.01L480.85 1265.01zM480.85 1315.01L524.15 1340.01L524.15 1390.01L480.85 1415.01L437.54 1390.01L437.54 1340.01zM524.15 1390.01L567.45 1415.01L567.45 1465.01L524.15 1490.01L480.85 1465.01L480.85 1415.01zM610.75 40.01L654.06 65.01L654.06 115.01L610.75 140.01L567.45 115.01L567.45 65.01zM567.45 715.01L610.75 740.01L610.75 790.01L567.45 815.01L524.15 790.01L524.15 740.01zM567.45 865.01L610.75 890.01L610.75 940.01L567.45 965.01L524.15 940.01L524.15 890.01zM567.45 1015.01L610.75 1040.01L610.75 1090.01L567.45 1115.01L524.15 1090.01L524.15 1040.01zM654.06 -34.99L697.36 -9.99L697.36 40.01L654.06 65.01L610.75 40.01L610.75 -9.99zM697.36 40.01L740.66 65.01L740.66 115.01L697.36 140.01L654.06 115.01L654.06 65.01zM697.36 190.01L740.66 215.01L740.66 265.01L697.36 290.01L654.06 265.01L654.06 215.01zM697.36 640.01L740.66 665.01L740.66 715.01L697.36 740.01L654.06 715.01L654.06 665.01zM654.06 715.01L697.36 740.01L697.36 790.01L654.06 815.01L610.75 790.01L610.75 740.01zM654.06 1015.01L697.36 1040.01L697.36 1090.01L654.06 1115.01L610.75 1090.01L610.75 1040.01zM740.66 -34.99L783.96 -9.99L783.96 40.01L740.66 65.01L697.36 40.01L697.36 -9.99zM740.66 115.01L783.96 140.01L783.96 190.01L740.66 215.01L697.36 190.01L697.36 140.01zM740.66 265.01L783.96 290.01L783.96 340.01L740.66 365.01L697.36 340.01L697.36 290.01zM783.96 340.01L827.27 365.01L827.27 415.01L783.96 440.01L740.66 415.01L740.66 365.01zM740.66 415.01L783.96 440.01L783.96 490.01L740.66 515.01L697.36 490.01L697.36 440.01zM740.66 715.01L783.96 740.01L783.96 790.01L740.66 815.01L697.36 790.01L697.36 740.01zM740.66 865.01L783.96 890.01L783.96 940.01L740.66 965.01L697.36 940.01L697.36 890.01zM740.66 1015.01L783.96 1040.01L783.96 1090.01L740.66 1115.01L697.36 1090.01L697.36 1040.01zM783.96 1240.01L827.27 1265.01L827.27 1315.01L783.96 1340.01L740.66 1315.01L740.66 1265.01zM783.96 1390.01L827.27 1415.01L827.27 1465.01L783.96 1490.01L740.66 1465.01L740.66 1415.01zM827.27 -34.99L870.57 -9.99L870.57 40.01L827.27 65.01L783.96 40.01L783.96 -9.99zM870.57 190.01L913.87 215.01L913.87 265.01L870.57 290.01L827.27 265.01L827.27 215.01zM870.57 340.01L913.87 365.01L913.87 415.01L870.57 440.01L827.27 415.01L827.27 365.01zM827.27 715.01L870.57 740.01L870.57 790.01L827.27 815.01L783.96 790.01L783.96 740.01zM827.27 865.01L870.57 890.01L870.57 940.01L827.27 965.01L783.96 940.01L783.96 890.01zM827.27 1015.01L870.57 1040.01L870.57 1090.01L827.27 1115.01L783.96 1090.01L783.96 1040.01zM870.57 1090.01L913.87 1115.01L913.87 1165.01L870.57 1190.01L827.27 1165.01L827.27 1115.01zM913.87 715.01L957.17 740.01L957.17 790.01L913.87 815.01L870.57 790.01L870.57 740.01zM957.17 940.01L1000.48 965.01L1000.48 1015.01L957.17 1040.01L913.87 1015.01L913.87 965.01zM1043.78 190.01L1087.08 215.01L1087.08 265.01L1043.78 290.01L1000.48 265.01L1000.48 215.01zM1000.48 415.01L1043.78 440.01L1043.78 490.01L1000.48 515.01L957.17 490.01L957.17 440.01zM1043.78 940.01L1087.08 965.01L1087.08 1015.01L1043.78 1040.01L1000.48 1015.01L1000.48 965.01zM1043.78 1090.01L1087.08 1115.01L1087.08 1165.01L1043.78 1190.01L1000.48 1165.01L1000.48 1115.01zM1087.08 115.01L1130.38 140.01L1130.38 190.01L1087.08 215.01L1043.78 190.01L1043.78 140.01zM1130.38 340.01L1173.68 365.01L1173.68 415.01L1130.38 440.01L1087.08 415.01L1087.08 365.01zM1087.08 865.01L1130.38 890.01L1130.38 940.01L1087.08 965.01L1043.78 940.01L1043.78 890.01zM1173.68 -34.99L1216.99 -9.99L1216.99 40.01L1173.68 65.01L1130.38 40.01L1130.38 -9.99zM1216.99 190.01L1260.29 215.01L1260.29 265.01L1216.99 290.01L1173.68 265.01L1173.68 215.01zM1173.68 415.01L1216.99 440.01L1216.99 490.01L1173.68 515.01L1130.38 490.01L1130.38 440.01zM1216.99 640.01L1260.29 665.01L1260.29 715.01L1216.99 740.01L1173.68 715.01L1173.68 665.01zM1216.99 790.01L1260.29 815.01L1260.29 865.01L1216.99 890.01L1173.68 865.01L1173.68 815.01zM1216.99 1240.01L1260.29 1265.01L1260.29 1315.01L1216.99 1340.01L1173.68 1315.01L1173.68 1265.01zM1216.99 1390.01L1260.29 1415.01L1260.29 1465.01L1216.99 1490.01L1173.68 1465.01L1173.68 1415.01zM1260.29 -34.99L1303.59 -9.99L1303.59 40.01L1260.29 65.01L1216.99 40.01L1216.99 -9.99zM1260.29 115.01L1303.59 140.01L1303.59 190.01L1260.29 215.01L1216.99 190.01L1216.99 140.01zM1303.59 190.01L1346.89 215.01L1346.89 265.01L1303.59 290.01L1260.29 265.01L1260.29 215.01zM1260.29 415.01L1303.59 440.01L1303.59 490.01L1260.29 515.01L1216.99 490.01L1216.99 440.01zM1260.29 565.01L1303.59 590.01L1303.59 640.01L1260.29 665.01L1216.99 640.01L1216.99 590.01zM1303.59 790.01L1346.89 815.01L1346.89 865.01L1303.59 890.01L1260.29 865.01L1260.29 815.01zM1303.59 1390.01L1346.89 1415.01L1346.89 1465.01L1303.59 1490.01L1260.29 1465.01L1260.29 1415.01zM1390.2 40.01L1433.5 65.01L1433.5 115.01L1390.2 140.01L1346.89 115.01L1346.89 65.01zM1390.2 490.01L1433.5 515.01L1433.5 565.01L1390.2 590.01L1346.89 565.01L1346.89 515.01zM1346.89 715.01L1390.2 740.01L1390.2 790.01L1346.89 815.01L1303.59 790.01L1303.59 740.01zM1346.89 1015.01L1390.2 1040.01L1390.2 1090.01L1346.89 1115.01L1303.59 1090.01L1303.59 1040.01zM1390.2 1090.01L1433.5 1115.01L1433.5 1165.01L1390.2 1190.01L1346.89 1165.01L1346.89 1115.01zM1346.89 1165.01L1390.2 1190.01L1390.2 1240.01L1346.89 1265.01L1303.59 1240.01L1303.59 1190.01zM1390.2 1390.01L1433.5 1415.01L1433.5 1465.01L1390.2 1490.01L1346.89 1465.01L1346.89 1415.01zM1476.8 490.01L1520.11 515.01L1520.11 565.01L1476.8 590.01L1433.5 565.01L1433.5 515.01zM1433.5 865.01L1476.8 890.01L1476.8 940.01L1433.5 965.01L1390.2 940.01L1390.2 890.01zM1433.5 1165.01L1476.8 1190.01L1476.8 1240.01L1433.5 1265.01L1390.2 1240.01L1390.2 1190.01zM1476.8 1240.01L1520.11 1265.01L1520.11 1315.01L1476.8 1340.01L1433.5 1315.01L1433.5 1265.01z" stroke="rgba(6, 80, 156, 0.93)" stroke-width="2"></path></g><defs><mask id="SvgjsMask1367"><rect width="1440" height="1440" fill="#ffffff"></rect></mask><linearGradient x1="0%" y1="0%" x2="100%" y2="100%" gradientUnits="userSpaceOnUse" id="SvgjsLinearGradient1368"><stop stop-color="#0e2a47" offset="0"></stop><stop stop-color="rgba(15, 23, 42, 1)" offset="1"></stop></linearGradient></defs></svg>