<svg width="229" height="235" viewBox="0 0 229 235" fill="none" xmlns="http://www.w3.org/2000/svg">
<path fill-rule="evenodd" clip-rule="evenodd" d="M156.053 198.741C183.884 169.046 199.68 151.323 228.249 117.497H220.128C190.895 142.489 177.51 161.308 156.053 198.741Z" fill="white"/>
<path fill-rule="evenodd" clip-rule="evenodd" d="M72.3807 198.742C44.5499 169.048 28.7543 151.325 0.186279 117.5H8.30773C37.539 142.491 50.9243 161.31 72.3807 198.742Z" fill="white"/>
<path fill-rule="evenodd" clip-rule="evenodd" d="M156.056 36.2579C183.886 65.9509 199.682 83.6739 228.249 117.497H220.128C190.897 92.5074 177.512 73.6891 156.056 36.2579Z" fill="white"/>
<path fill-rule="evenodd" clip-rule="evenodd" d="M72.3874 36.257C44.5578 65.9492 28.7628 83.6718 0.196014 117.495H8.31712C37.5472 92.505 50.9319 73.6872 72.3874 36.257Z" fill="white"/>
<path fill-rule="evenodd" clip-rule="evenodd" d="M163.612 156.542C145.285 186.717 134.294 203.958 114.216 234.922C94.1387 203.958 83.1482 186.718 64.8217 156.544L100.342 117.495L64.8287 78.4523C83.1544 48.2798 94.1444 31.0403 114.221 0.0775299C134.298 31.0411 145.289 48.281 163.615 78.4543L128.1 117.498L163.612 156.542ZM114.216 131.031C127.619 147.071 133.788 154.75 142.18 165.932C131.618 181.899 125.544 190.157 114.216 202.672C102.889 190.157 96.8148 181.9 86.2532 165.933C94.6451 154.752 100.814 147.07 114.216 131.031ZM114.216 223.167C129.971 202.343 136.727 190.46 145.932 168.194C134.304 186.923 127.338 197.547 114.216 213.492C101.095 197.548 94.129 186.924 82.5014 168.196C91.7057 190.461 98.4617 202.344 114.216 223.167ZM114.221 103.965C127.623 87.9258 133.792 80.2463 142.184 69.0654C131.622 53.0989 125.548 44.8411 114.221 32.3263C102.894 44.8407 96.8205 53.0975 86.2593 69.0637C94.6508 80.2442 100.82 87.9262 114.221 103.965ZM114.221 11.7891C129.975 32.6119 136.731 44.538 145.936 66.8032C134.308 48.0748 127.342 37.4322 114.221 21.4883C101.1 37.4318 94.1348 48.0735 82.5077 66.8014C91.7116 44.5368 98.4673 32.6114 114.221 11.7891Z" fill="white"/>
</svg>
